<svg width="454" height="454" viewBox="0 0 454 454" fill="none" xmlns="http://www.w3.org/2000/svg">
<path d="M340.5 113.5C340.478 130.241 334.891 146.5 324.617 159.718C314.344 172.937 299.968 182.364 283.75 186.518V321.583C283.75 346.668 273.785 370.726 256.047 388.464C238.309 406.202 214.252 416.167 189.167 416.167C164.082 416.167 140.024 406.202 122.286 388.464C104.548 370.726 94.5833 346.668 94.5833 321.583V227L189.167 321.583H132.417C132.417 336.634 138.396 351.069 149.038 361.712C159.681 372.354 174.116 378.333 189.167 378.333C204.218 378.333 218.652 372.354 229.295 361.712C239.938 351.069 245.917 336.634 245.917 321.583V186.518C212.434 177.817 189.167 147.55 189.167 112.932C189.167 71.1266 223.217 37.8333 264.833 37.8333C306.828 37.8333 340.5 71.6941 340.5 113.5ZM264.833 151.333C274.867 151.333 284.49 147.347 291.585 140.252C298.681 133.157 302.667 123.534 302.667 113.5C302.667 103.466 298.681 93.8428 291.585 86.7477C284.49 79.6526 274.867 75.6666 264.833 75.6666C254.799 75.6666 245.176 79.6526 238.081 86.7477C230.986 93.8428 227 103.466 227 113.5C227 123.534 230.986 133.157 238.081 140.252C245.176 147.347 254.799 151.333 264.833 151.333Z" fill="black" fill-opacity="0.12"/>
</svg>
