<svg width="239" height="90" viewBox="0 0 239 90" fill="none" xmlns="http://www.w3.org/2000/svg">
<path d="M30.36 44.28C32.84 44.84 34.8 46.08 36.24 48C37.72 49.88 38.46 52.04 38.46 54.48C38.46 58.08 37.22 60.9 34.74 62.94C32.26 64.98 28.78 66 24.3 66H3.36V23.7H23.64C27.96 23.7 31.34 24.66 33.78 26.58C36.26 28.5 37.5 31.2 37.5 34.68C37.5 37.16 36.84 39.24 35.52 40.92C34.24 42.56 32.52 43.68 30.36 44.28ZM15.12 40.5H21.06C24.02 40.5 25.5 39.28 25.5 36.84C25.5 34.32 24.02 33.06 21.06 33.06H15.12V40.5ZM21.96 56.52C24.92 56.52 26.4 55.28 26.4 52.8C26.4 51.52 26 50.54 25.2 49.86C24.44 49.18 23.34 48.84 21.9 48.84H15.12V56.52H21.96ZM41.6939 49.14C41.6939 45.66 42.3139 42.62 43.5539 40.02C44.8339 37.42 46.5539 35.42 48.7139 34.02C50.9139 32.62 53.3539 31.92 56.0339 31.92C58.3539 31.92 60.3539 32.38 62.0339 33.3C63.7139 34.22 65.0139 35.46 65.9339 37.02V32.34H77.6939V66H65.9339V61.32C65.0139 62.88 63.6939 64.12 61.9739 65.04C60.2939 65.96 58.3139 66.42 56.0339 66.42C53.3539 66.42 50.9139 65.72 48.7139 64.32C46.5539 62.92 44.8339 60.92 43.5539 58.32C42.3139 55.68 41.6939 52.62 41.6939 49.14ZM65.9339 49.14C65.9339 46.98 65.3339 45.28 64.1339 44.04C62.9739 42.8 61.5339 42.18 59.8139 42.18C58.0539 42.18 56.5939 42.8 55.4339 44.04C54.2739 45.24 53.6939 46.94 53.6939 49.14C53.6939 51.3 54.2739 53.02 55.4339 54.3C56.5939 55.54 58.0539 56.16 59.8139 56.16C61.5339 56.16 62.9739 55.54 64.1339 54.3C65.3339 53.06 65.9339 51.34 65.9339 49.14ZM106.415 32.04C110.295 32.04 113.375 33.34 115.655 35.94C117.935 38.5 119.075 41.98 119.075 46.38V66H107.315V47.94C107.315 46.02 106.815 44.52 105.815 43.44C104.815 42.32 103.475 41.76 101.795 41.76C100.035 41.76 98.6552 42.32 97.6552 43.44C96.6552 44.52 96.1552 46.02 96.1552 47.94V66H84.3952V32.34H96.1552V37.14C97.1952 35.62 98.5952 34.4 100.355 33.48C102.115 32.52 104.135 32.04 106.415 32.04ZM146.588 66L137.288 52.2V66H125.528V21.6H137.288V45.54L146.588 32.34H160.688L147.428 49.26L160.928 66H146.588Z" fill="#050327"/>
<path d="M191.174 77L189.985 75.8005L189.351 75.178L175.467 61.4176L175.475 61.4088L162 48.053L177.722 32.4708L191.182 45.8105L223.278 14L239 29.5824L206.904 61.3926L205.091 63.2077L191.174 77ZM182.723 61.3852L191.173 69.7595L191.189 69.7436L191.198 69.7522L199.623 61.4017L201.437 59.5869L216.574 44.5847L231.711 29.5824L223.278 21.2243L191.182 53.0345L177.722 39.6948L169.289 48.053L182.732 61.3764L182.723 61.3852Z" fill="#32EC8D"/>
</svg>
